<?xml version="1.0" encoding="UTF-8"?>
<svg width="300px" height="120px" viewBox="0 0 300 120" version="1.1" xmlns="http://www.w3.org/2000/svg" xmlns:xlink="http://www.w3.org/1999/xlink">
    <!-- Generator: Sketch 61.2 (89653) - https://sketch.com -->
    <title>logos-transloadit-default</title>
    <desc>Created with Sketch.</desc>

    <rect width="100%" height="100%" fill="white"/>

    <g id="logos-transloadit-default" stroke="none" stroke-width="1" fill="none" fill-rule="evenodd">
        <g id="Glyph" transform="translate(31.000000, 27.000000)">
            <path d="M25.6412988,15.9781206 C24.5611464,13.1145805 23.8819802,8.53543352 23.8819802,6.93856814 C23.8819802,3.8933472 26.3543378,1.4209896 29.3995587,1.4209896 C32.4531938,1.4209896 34.9255514,3.8933472 34.9255514,6.93856814 C34.9255514,8.52883974 34.2519825,13.0768149 33.176688,15.9425607 C42.7186116,16.457158 55.9829719,18.9020491 56.592934,22.1543706 C57.2765346,25.8199565 57.53825,35.0349558 57.53825,44.0772229 C57.53825,51.9192632 43.5657882,57.0405101 29.7278481,57.0405101 C15.8831034,57.0405101 1.9174462,51.9192632 1.9174462,44.0772229 C1.9174462,35.0349558 2.17288043,25.8199565 2.86276223,22.1543706 C3.45650287,18.9720181 16.1563181,16.5625286 25.6412988,15.9781206 L25.6412988,15.9781206 Z" id="path3025-path" fill="#FFFFFF"></path>
            <path d="M21.8977278,41.3334051 C21.8977278,42.3919114 21.0356203,43.2481709 19.9771139,43.2481709 C18.9186076,43.2481709 18.0565,42.3919114 18.0565,41.3334051 C18.0565,40.2753861 18.9186076,39.4132785 19.9771139,39.4132785 C21.0356203,39.4132785 21.8977278,40.2753861 21.8977278,41.3334051" id="path3005" fill="#0D1419" fill-rule="nonzero"></path>
            <path d="M36.9755949,49.9842089 C37.3737532,50.7274051 37.1003544,51.6611519 36.3571582,52.0651582 C36.2440949,52.1187658 33.6636203,53.4920949 29.7098165,53.4920949 C25.7501646,53.4920949 23.1994177,52.1187658 23.0926899,52.0593101 C22.3494937,51.6489684 22.0756076,50.7157089 22.4859494,49.9725127 C22.890443,49.2351646 23.8178544,48.9617658 24.5610506,49.3662595 C24.6146582,49.3896519 26.6064241,50.4242785 29.7098165,50.4242785 C32.8434241,50.4242785 34.8707658,49.3721076 34.8946456,49.3662595 C35.6378418,48.9617658 36.5711013,49.2351646 36.9755949,49.9842089" id="path3013" fill="#0D1419" fill-rule="nonzero"></path>
            <path d="M45.2277532,41.3334051 C45.2277532,42.3919114 44.371981,43.2481709 43.3134747,43.2481709 C42.2549684,43.2481709 41.3928608,42.3919114 41.3928608,41.3334051 C41.3928608,40.2753861 42.2549684,39.4132785 43.3134747,39.4132785 C44.371981,39.4132785 45.2277532,40.2753861 45.2277532,41.3334051" id="path3017" fill="#0D1419" fill-rule="nonzero"></path>
            <path d="M41.3928608,45.1682975 C38.2241646,45.1682975 35.6378418,42.5883101 35.6378418,39.4132785 C35.6378418,36.2382468 38.2241646,33.6577722 41.3928608,33.6577722 C44.5678924,33.6577722 47.1483671,36.2382468 47.1483671,39.4132785 C47.1483671,42.5883101 44.5678924,45.1682975 41.3928608,45.1682975 M41.3928608,30.780019 C36.6247089,30.780019 32.7600886,34.6446392 32.7600886,39.4132785 C32.7600886,44.1814304 36.6247089,48.0460506 41.3928608,48.0460506 C46.1615,48.0460506 50.0261203,44.1814304 50.0261203,39.4132785 C50.0261203,34.6446392 46.1615,30.780019 41.3928608,30.780019" id="path3021" fill="#0D1419" fill-rule="nonzero"></path>
            <path d="M3.89873418,43.5172143 C3.89873418,35.1191427 4.13597059,26.5606448 4.77670334,23.1562051 C5.36979436,19.9773345 18.9690798,17.6287913 27.8712788,17.3264121 L27.8712788,11.229242 C26.5251566,10.6419846 25.576211,9.29586246 25.576211,7.72417126 C25.576211,5.61286445 27.2903412,3.89873418 29.401648,3.89873418 C31.5187885,3.89873418 33.2329188,5.61286445 33.2329188,7.72417126 C33.2329188,9.29586246 32.2839732,10.6419846 30.9320173,11.229242 L30.9320173,17.3084249 C39.8045618,17.5160068 54.0684008,19.9005244 54.6789929,23.1562051 C55.3138919,26.5606448 55.556962,35.1191427 55.556962,43.5172143 C55.556962,50.8005665 42.5799361,55.556962 29.7278481,55.556962 C16.8694403,55.556962 3.89873418,50.8005665 3.89873418,43.5172143 Z M46.0425886,15.1612025 C42.5644304,14.4477342 38.5092595,13.9067848 34.7757342,13.6270506 L34.7757342,13.1514051 C36.2202152,11.7308038 37.0764747,9.76876582 37.0764747,7.66978481 C37.0764747,3.44258228 33.6338924,0 29.4008418,0 C25.1736392,0 21.731057,3.44258228 21.731057,7.66978481 C21.731057,9.76876582 22.5873165,11.7308038 24.0317975,13.1514051 L24.0317975,13.6806582 C20.4766392,13.9720886 16.689019,14.4891582 13.4131076,15.1612025 C5.31543671,16.8201139 1.58142405,18.9960949 0.939594937,22.4328291 C0.118911392,26.8203671 0,37.5462722 0,43.5512975 C0,53.878557 15.3156899,59.4556962 29.7278481,59.4556962 C44.1400063,59.4556962 59.4556962,53.878557 59.4556962,43.5512975 C59.4556962,37.5462722 59.3309367,26.8203671 58.5102532,22.4328291 C57.8679367,18.9960949 54.1402595,16.8201139 46.0425886,15.1612025 Z" id="path3025" fill="#0D1419" fill-rule="nonzero"></path>
            <path d="M18.0565,45.1682975 C14.8878038,45.1682975 12.3073291,42.5883101 12.3073291,39.4132785 C12.3073291,36.2382468 14.8878038,33.6577722 18.0565,33.6577722 C21.2315316,33.6577722 23.8120063,36.2382468 23.8120063,39.4132785 C23.8120063,42.5883101 21.2315316,45.1682975 18.0565,45.1682975 M18.0565,30.780019 C13.2941962,30.780019 9.42957595,34.6446392 9.42957595,39.4132785 C9.42957595,44.1814304 13.2941962,48.0460506 18.0565,48.0460506 C22.8251392,48.0460506 26.6897595,44.1814304 26.6897595,39.4132785 C26.6897595,34.6446392 22.8251392,30.780019 18.0565,30.780019" id="path3033" fill="#0D1419" fill-rule="nonzero"></path>
        </g>
        <g id="Letters" transform="translate(100.873418, 48.265823)" fill="#0D1419">
            <polyline id="Shape" fill-rule="nonzero" points="17.7582491 4.68133122 10.6542852 4.68133122 10.6542852 22.8691171 7.1028568 22.8691171 7.1028568 4.68133122 0 4.68133122 0 1.33027954 17.7582491 1.33027954 17.7582491 4.68133122"></polyline>
            <path d="M28.1158439,9.46601749 L23.380975,9.46601749 C22.5816822,9.46601749 22.1964275,9.94537176 22.1964275,10.9029732 L22.1964275,22.8691171 L18.6449991,22.8691171 L18.6449991,10.9029732 C18.6449991,7.64048587 20.1539134,6.11607287 23.380975,6.11607287 L28.1158439,6.11607287 L28.1158439,9.46601749" id="Shape" fill-rule="nonzero"></path>
            <path d="M42.0248671,14.8518339 L34.9209032,16.6463681 C33.8559175,16.9142751 33.7374628,17.2751746 33.7374628,18.0822168 C33.7374628,19.0398182 34.1227175,19.5180655 34.9209032,19.5180655 L40.8414266,19.5180655 C41.6396124,19.5180655 42.022653,19.0398182 42.022653,18.0822168 L42.022653,14.8518339 L42.0248671,14.8518339 L42.0248671,14.8518339 Z M45.5774025,10.9029732 L45.5774025,18.0811097 C45.5774025,21.3391689 44.0684883,22.865796 40.8425337,22.865796 L34.9220103,22.865796 C31.6971627,22.865796 30.1871414,21.3391689 30.1871414,18.0811097 C30.1871414,16.6430469 30.6609604,15.6577691 31.6971627,15.058853 C32.7621484,14.4300465 33.3843126,14.2219204 34.9220103,13.8333445 L42.0259741,12.0388104 L42.0259741,10.9040803 C42.0259741,9.94647881 41.6396124,9.46712454 40.8436407,9.46712454 L34.9231173,9.46712454 C34.1249316,9.46712454 33.7396769,9.94647881 33.7396769,10.9040803 L33.7396769,12.0996983 L30.1882485,12.0996983 L30.1882485,10.9040803 C30.1882485,7.64159292 31.6982698,6.11717992 34.9231173,6.11717992 L40.8436407,6.11717992 C44.0684883,6.11607287 45.5774025,7.64048587 45.5774025,10.9029732 L45.5774025,10.9029732 Z" id="Shape" fill-rule="nonzero"></path>
            <path d="M60.8193184,10.9029732 C60.8193184,9.94537176 60.4340637,9.46601749 59.636985,9.46601749 L53.7164616,9.46601749 C52.9160618,9.46601749 52.5319141,9.94537176 52.5319141,10.9029732 L52.5319141,22.8691171 L48.9815928,22.8691171 L48.9815928,10.9029732 C48.9815928,7.64048587 50.490507,6.11607287 53.7164616,6.11607287 L59.636985,6.11607287 C62.8618326,6.11607287 64.3707468,7.64048587 64.3707468,10.9029732 L64.3707468,22.8691171 L60.8193184,22.8691171 L60.8193184,10.9029732" id="Shape" fill-rule="nonzero"></path>
            <path d="M78.2808771,22.8691171 L72.3592466,22.8691171 C69.133292,22.8691171 67.6254848,21.34249 67.6254848,18.0822168 L67.6254848,16.8865987 L71.1780203,16.8865987 L71.1780203,18.0822168 C71.1780203,19.0398182 71.5621679,19.5180655 72.3592466,19.5180655 L78.2808771,19.5180655 C79.0801699,19.5180655 79.4632105,19.0398182 79.4632105,18.0822168 C79.4632105,17.3947364 79.4632105,17.0637273 78.2808771,16.6463681 L72.3592466,15.1496314 C70.8204419,14.7599485 70.1993848,14.5529294 69.133292,13.9540134 C68.0970897,13.3252068 67.6254848,12.3388219 67.6254848,10.9029732 C67.6254848,7.64048587 69.133292,6.11607287 72.3592466,6.11607287 L78.2808771,6.11607287 C81.5057247,6.11607287 83.0135318,7.64048587 83.0135318,10.9029732 L83.0135318,12.0985913 L79.4643176,12.0985913 L79.4643176,10.9029732 C79.4643176,9.94537176 79.0790629,9.46601749 78.2819842,9.46601749 L72.3603537,9.46601749 C71.5610609,9.46601749 71.1791274,9.94537176 71.1791274,10.9029732 C71.1791274,11.5882395 71.1791274,11.9192486 72.3603537,12.3388219 L78.2819842,13.8333445 C79.8207889,14.2252415 80.440739,14.4322606 81.4791554,15.0610671 C82.5441411,15.6577691 83.016853,16.6463681 83.016853,18.0822168 C83.015746,21.34249 81.5068317,22.8691171 78.2808771,22.8691171" id="Shape" fill-rule="nonzero"></path>
            <path d="M90.4152932,19.5169584 L93.3733408,19.5169584 L93.3733408,22.865796 L90.4152932,22.865796 C87.4539244,22.865796 86.271591,21.6701779 86.271591,18.6778117 L86.271591,1.32917249 L89.8230194,1.32917249 L89.8230194,18.6789187 C89.8230194,19.2778348 89.9115837,19.5169584 90.4152932,19.5169584" id="Shape" fill-rule="nonzero"></path>
            <path d="M107.431816,10.9029732 C107.431816,9.94537176 107.045454,9.46601749 106.248376,9.46601749 L100.328959,9.46601749 C99.5274525,9.46601749 99.145519,9.94537176 99.145519,10.9029732 L99.145519,18.0811097 C99.145519,19.0364971 99.5296666,19.5169584 100.328959,19.5169584 L106.248376,19.5169584 C107.047669,19.5169584 107.430709,19.0364971 107.430709,18.0811097 L107.431816,10.9029732 L107.431816,10.9029732 Z M110.984352,10.9029732 L110.984352,18.0811097 C110.984352,21.3391689 109.531897,22.865796 106.248376,22.865796 L100.328959,22.865796 C97.0432239,22.865796 95.5940906,21.3391689 95.5940906,18.0811097 L95.5940906,10.9029732 C95.5940906,7.64048587 97.045438,6.11607287 100.328959,6.11607287 L106.248376,6.11607287 C109.534111,6.11607287 110.984352,7.64048587 110.984352,10.9029732 L110.984352,10.9029732 Z" id="Shape" fill-rule="nonzero"></path>
            <path d="M125.929577,14.8518339 L118.82672,16.6463681 C117.759521,16.9142751 117.642173,17.2751746 117.642173,18.0822168 C117.642173,19.0398182 118.027428,19.5180655 118.82672,19.5180655 L124.746137,19.5180655 C125.54543,19.5180655 125.929577,19.0398182 125.929577,18.0822168 L125.929577,14.8518339 L125.929577,14.8518339 Z M129.479899,10.9029732 L129.479899,18.0811097 C129.479899,21.3391689 127.973198,22.865796 124.747244,22.865796 L118.827827,22.865796 C115.601873,22.865796 114.091852,21.3391689 114.091852,18.0811097 C114.091852,16.6430469 114.565671,15.6577691 115.601873,15.058853 C116.665751,14.4300465 117.286809,14.2219204 118.827827,13.8333445 L125.930684,12.0388104 L125.930684,10.9040803 C125.930684,9.94647881 125.544322,9.46712454 124.747244,9.46712454 L118.827827,9.46712454 C118.026321,9.46712454 117.64328,9.94647881 117.64328,10.9040803 L117.64328,12.0996983 L114.091852,12.0996983 L114.091852,10.9040803 C114.091852,7.64159292 115.601873,6.11717992 118.827827,6.11717992 L124.747244,6.11717992 C127.972091,6.11607287 129.479899,7.64048587 129.479899,10.9029732 L129.479899,10.9029732 Z" id="Shape" fill-rule="nonzero"></path>
            <path d="M144.574576,18.0822168 L144.574576,9.46712454 L137.471719,9.46712454 C136.670213,9.46712454 136.288279,9.94537176 136.288279,10.9029732 L136.288279,18.0811097 C136.288279,19.0387112 136.672427,19.5169584 137.471719,19.5169584 L143.391136,19.5169584 C144.189322,19.5169584 144.574576,19.0398182 144.574576,18.0822168 Z M148.124898,1.33027954 L148.124898,18.0822168 C148.124898,21.34249 146.674657,22.8691171 143.391136,22.8691171 L137.471719,22.8691171 C134.184877,22.8691171 132.736851,21.34249 132.736851,18.0822168 L132.736851,10.9040803 C132.736851,7.64269998 134.185984,6.11828697 137.471719,6.11828697 L144.574576,6.11828697 L144.574576,1.3313866 L148.124898,1.33027954 L148.124898,1.33027954 Z" id="Shape" fill-rule="nonzero"></path>
            <polygon id="Path" fill-rule="nonzero" points="155.227754 6.26129 155.227754 22.865796 151.677433 22.865796 151.677433 6.26129 155.227754 6.26129"></polygon>
            <circle id="Oval" cx="153.323339" cy="2.26971762" r="2.26971762"></circle>
            <path d="M168.251135,19.5169584 L168.251135,22.865796 L162.923992,22.865796 C159.965944,22.865796 158.782504,21.6701779 158.782504,18.6778117 L158.782504,1.32917249 L162.332825,1.32917249 L162.332825,6.11607287 L167.659968,6.11607287 L167.659968,9.46601749 L162.332825,9.46601749 L162.332825,18.6767046 C162.332825,19.2756207 162.423604,19.5158514 162.923992,19.5158514 L168.251135,19.5158514" id="Shape" fill-rule="nonzero"></path>
        </g>
    </g>
</svg>